<?xml version="1.0" encoding="UTF-8"?>
<svg xmlns="http://www.w3.org/2000/svg" xmlns:xlink="http://www.w3.org/1999/xlink" width="120pt" height="43pt" viewBox="0 0 120 43" version="1.1">
<g id="surface1">
<path style=" stroke:none;fill-rule:evenodd;fill:rgb(10.588235%,12.156863%,13.72549%);fill-opacity:1;" d="M 49.414062 32.332031 L 49.359375 32.332031 C 49.382812 32.332031 49.398438 32.355469 49.425781 32.359375 C 49.425781 32.359375 49.4375 32.359375 49.441406 32.359375 Z M 49.425781 32.359375 C 49.175781 32.363281 48.550781 32.492188 47.894531 32.492188 C 45.8125 32.492188 45.09375 31.523438 45.09375 30.261719 L 45.09375 21.851562 L 49.332031 21.851562 C 49.574219 21.851562 49.761719 21.632812 49.761719 21.339844 L 49.761719 16.769531 C 49.761719 16.527344 49.546875 16.3125 49.332031 16.3125 L 45.09375 16.3125 L 45.09375 10.644531 C 45.09375 10.429688 44.960938 10.292969 44.71875 10.292969 L 38.960938 10.292969 C 38.71875 10.292969 38.585938 10.429688 38.585938 10.644531 L 38.585938 16.476562 C 38.585938 16.476562 35.679688 17.199219 35.492188 17.226562 C 35.28125 17.28125 35.148438 17.46875 35.148438 17.683594 L 35.148438 21.339844 C 35.148438 21.632812 35.359375 21.851562 35.601562 21.851562 L 38.558594 21.851562 L 38.558594 30.664062 C 38.558594 37.222656 43.09375 37.894531 46.1875 37.894531 C 47.601562 37.894531 49.308594 37.4375 49.574219 37.304688 C 49.734375 37.25 49.8125 37.0625 49.8125 36.871094 L 49.8125 32.839844 C 49.8125 32.574219 49.632812 32.398438 49.425781 32.359375 Z M 112.613281 26.445312 C 112.613281 21.582031 110.667969 20.9375 108.613281 21.152344 C 107.011719 21.257812 105.734375 22.066406 105.734375 22.066406 L 105.734375 31.523438 C 105.734375 31.523438 107.039062 32.4375 108.988281 32.492188 C 111.734375 32.574219 112.613281 31.578125 112.613281 26.445312 Z M 119.09375 26.015625 C 119.09375 35.234375 116.132812 37.867188 110.960938 37.867188 C 106.585938 37.867188 104.238281 35.636719 104.238281 35.636719 C 104.238281 35.636719 104.132812 36.871094 104 37.035156 C 103.921875 37.195312 103.785156 37.25 103.625 37.25 L 99.679688 37.25 C 99.414062 37.25 99.171875 37.035156 99.171875 36.792969 L 99.226562 6.933594 C 99.226562 6.691406 99.441406 6.476562 99.679688 6.476562 L 105.359375 6.476562 C 105.601562 6.476562 105.8125 6.691406 105.8125 6.933594 L 105.8125 17.066406 C 105.8125 17.066406 108 15.640625 111.199219 15.640625 L 111.171875 15.585938 C 114.375 15.585938 119.09375 16.796875 119.09375 26.015625 Z M 95.839844 16.3125 L 90.238281 16.3125 C 89.945312 16.3125 89.785156 16.527344 89.785156 16.824219 L 89.785156 31.445312 C 89.785156 31.445312 88.320312 32.492188 86.320312 32.492188 C 84.320312 32.492188 83.734375 31.578125 83.734375 29.5625 L 83.734375 16.796875 C 83.734375 16.554688 83.519531 16.339844 83.28125 16.339844 L 77.574219 16.339844 C 77.332031 16.339844 77.121094 16.554688 77.121094 16.796875 L 77.121094 30.53125 C 77.121094 36.441406 80.398438 37.921875 84.90625 37.921875 C 88.613281 37.921875 91.625 35.851562 91.625 35.851562 C 91.625 35.851562 91.761719 36.898438 91.839844 37.0625 C 91.894531 37.195312 92.078125 37.304688 92.265625 37.304688 L 95.839844 37.304688 C 96.132812 37.304688 96.292969 37.085938 96.292969 36.847656 L 96.347656 16.769531 C 96.347656 16.527344 96.132812 16.3125 95.839844 16.3125 Z M 32.640625 16.285156 L 26.960938 16.285156 C 26.71875 16.285156 26.507812 16.527344 26.507812 16.824219 L 26.507812 36.550781 C 26.507812 37.085938 26.851562 37.277344 27.308594 37.277344 L 32.425781 37.277344 C 32.960938 37.277344 33.09375 37.035156 33.09375 36.550781 L 33.09375 16.742188 C 33.09375 16.5 32.878906 16.285156 32.640625 16.285156 Z M 29.839844 7.203125 C 27.785156 7.203125 26.160156 8.84375 26.160156 10.910156 C 26.160156 12.980469 27.785156 14.621094 29.839844 14.621094 C 31.839844 14.621094 33.464844 12.980469 33.464844 10.910156 C 33.464844 8.84375 31.839844 7.203125 29.839844 7.203125 Z M 73.8125 6.53125 L 68.1875 6.53125 C 67.945312 6.53125 67.734375 6.746094 67.734375 6.988281 L 67.734375 17.980469 L 58.90625 17.980469 L 58.90625 6.988281 C 58.90625 6.746094 58.691406 6.53125 58.453125 6.53125 L 52.773438 6.53125 C 52.535156 6.53125 52.320312 6.746094 52.320312 6.988281 L 52.320312 36.847656 C 52.320312 37.085938 52.558594 37.304688 52.773438 37.304688 L 58.453125 37.304688 C 58.691406 37.304688 58.90625 37.085938 58.90625 36.847656 L 58.90625 24.082031 L 67.734375 24.082031 L 67.679688 36.847656 C 67.679688 37.085938 67.894531 37.304688 68.132812 37.304688 L 73.8125 37.304688 C 74.054688 37.304688 74.265625 37.085938 74.265625 36.847656 L 74.265625 6.988281 C 74.265625 6.746094 74.054688 6.53125 73.8125 6.53125 Z M 23.492188 19.753906 L 23.492188 35.179688 C 23.492188 35.289062 23.464844 35.476562 23.332031 35.527344 C 23.332031 35.527344 20 37.921875 14.507812 37.921875 C 7.867188 37.921875 0 35.824219 0 22.011719 C 0 8.195312 6.878906 5.347656 13.601562 5.375 C 19.414062 5.375 21.761719 6.691406 22.132812 6.933594 C 22.238281 7.070312 22.292969 7.175781 22.292969 7.308594 L 21.171875 12.09375 C 21.171875 12.335938 20.933594 12.632812 20.640625 12.550781 C 19.679688 12.253906 18.238281 11.664062 14.851562 11.664062 C 10.933594 11.664062 6.71875 12.792969 6.71875 21.6875 C 6.71875 30.585938 10.71875 31.632812 13.601562 31.632812 C 16.054688 31.632812 16.933594 31.335938 16.933594 31.335938 L 16.933594 25.15625 L 13.011719 25.15625 C 12.71875 25.15625 12.507812 24.941406 12.507812 24.699219 L 12.507812 19.753906 C 12.507812 19.511719 12.71875 19.296875 13.011719 19.296875 L 22.988281 19.296875 C 23.28125 19.296875 23.492188 19.511719 23.492188 19.753906 Z M 23.492188 19.753906 "/>
</g>
</svg>
